<?xml version="1.0" encoding="UTF-8"?>
<svg id="Layer_1" xmlns="http://www.w3.org/2000/svg" viewBox="0 0 28.64 55">
  <defs>
    <style>
      .cls-1 {
        fill: #fff;
        fill-rule: evenodd;
      }
    </style>
  </defs>
  <path class="cls-1" d="M9.78,29.17s-1.44.84,1.03,1.12c2.99.34,4.52.29,7.81-.33,0,0,.87.54,2.08,1.01-7.39,3.16-16.72-.18-10.92-1.8ZM8.87,25.04s-1.62,1.2.85,1.45c3.19.33,5.72.36,10.08-.48,0,0,.6.61,1.55.95-8.93,2.61-18.87.21-12.48-1.91Z"/>
  <path class="cls-1" d="M16.48,18.04c1.82,2.1-.48,3.98-.48,3.98,0,0,4.62-2.38,2.5-5.37-1.98-2.78-3.5-4.17,4.73-8.94,0,0-12.92,3.22-6.75,10.33Z"/>
  <path class="cls-1" d="M26.25,32.23s1.07.88-1.17,1.56c-4.26,1.29-17.74,1.68-21.49.05-1.35-.59,1.18-1.4,1.97-1.57.83-.18,1.3-.15,1.3-.15-1.5-1.05-9.68,2.07-4.15,2.97,15.06,2.44,27.45-1.1,23.54-2.86h0ZM10.47,20.77s-6.86,1.63-2.43,2.22c1.87.25,5.6.19,9.07-.1,2.84-.24,5.69-.75,5.69-.75,0,0-1,.43-1.72.92-6.96,1.83-20.41.98-16.54-.89,3.27-1.58,5.94-1.4,5.94-1.4h0ZM22.77,27.64c7.08-3.68,3.81-7.21,1.52-6.74-.56.12-.81.22-.81.22,0,0,.21-.33.6-.47,4.52-1.59,7.99,4.69-1.46,7.17,0,0,.11-.1.14-.19Z"/>
  <path class="cls-1" d="M18.5,0s3.92,3.92-3.72,9.95c-6.12,4.84-1.4,7.59,0,10.75-3.58-3.23-6.2-6.07-4.44-8.71C12.93,8.11,20.08,6.23,18.5,0h0Z"/>
  <path class="cls-1" d="M11.17,37.61c6.79.43,17.23-.24,17.47-3.46,0,0-.48,1.22-5.61,2.19-5.8,1.09-12.95.96-17.19.26,0,0,.87.72,5.33,1.01Z"/>
  <path class="cls-1" d="M10.05,49.89c-.64.56-1.32.87-1.93.87-.87,0-1.34-.52-1.34-1.35,0-.9.5-1.56,2.52-1.56h.74v2.05h0ZM11.82,51.88v-6.18c0-1.58-.9-2.62-3.07-2.62-1.27,0-2.38.31-3.28.71l.26,1.09c.71-.26,1.63-.5,2.53-.5,1.25,0,1.79.5,1.79,1.54v.78h-.62c-3.04,0-4.41,1.18-4.41,2.95,0,1.53.9,2.39,2.6,2.39,1.09,0,1.91-.45,2.67-1.11l.14.94h1.39ZM17.72,51.88h-2.2l-2.65-8.64h1.93l1.65,5.31.37,1.59c.83-2.31,1.42-4.65,1.72-6.9h1.87c-.5,2.84-1.4,5.97-2.67,8.64ZM26.18,49.89c-.64.56-1.32.87-1.93.87-.87,0-1.34-.52-1.34-1.35,0-.9.5-1.56,2.52-1.56h.75v2.05ZM27.95,51.88v-6.18c0-1.58-.9-2.62-3.07-2.62-1.27,0-2.38.31-3.28.71l.26,1.09c.71-.26,1.63-.5,2.53-.5,1.25,0,1.79.5,1.79,1.54v.78h-.62c-3.04,0-4.41,1.18-4.41,2.95,0,1.53.9,2.39,2.6,2.39,1.09,0,1.91-.45,2.67-1.11l.14.94h1.39ZM3.08,53.35c-.5.74-1.32,1.32-2.21,1.65l-.87-1.03c.68-.35,1.26-.91,1.53-1.43.23-.47.33-1.07.33-2.5v-9.86h1.88v9.73c0,1.92-.15,2.7-.66,3.45Z"/>
</svg>